<!DOCTYPE svg PUBLIC "-//W3C//DTD SVG 20010904//EN" "http://www.w3.org/TR/2001/REC-SVG-20010904/DTD/svg10.dtd">
<svg version="1.0" xmlns="http://www.w3.org/2000/svg" width="200px" height="200px" viewBox="0 0 2000 2000" preserveAspectRatio="xMidYMid meet">
<g id="layer101" fill="#2a2a2a" stroke="none">
 <path d="M738 1900 c-14 -9 -16 -31 -15 -185 2 -184 4 -194 48 -180 13 5 19 16 19 38 l0 31 28 -31 c33 -35 63 -47 98 -39 29 8 44 41 44 97 0 88 -53 153 -126 154 l-44 0 0 56 c0 43 -4 58 -16 63 -19 7 -15 8 -36 -4z m118 -168 c29 -19 49 -132 25 -146 -21 -13 -101 120 -86 144 7 12 45 13 61 2z"/>
 <path d="M471 1764 c-35 -29 -41 -72 -15 -99 22 -22 60 -16 56 8 -5 26 25 67 48 67 11 0 29 -9 40 -20 29 -29 11 -56 -58 -87 -79 -35 -92 -48 -92 -99 0 -35 5 -47 30 -68 35 -29 86 -41 132 -32 43 8 58 23 58 57 0 54 -66 85 -72 33 -6 -54 -68 -58 -76 -6 -3 18 9 27 71 56 61 28 76 39 85 65 38 108 -117 201 -207 125z"/>
 <path d="M1023 1780 c-30 -12 -43 -41 -43 -95 0 -59 25 -112 64 -137 25 -15 42 -18 87 -14 88 8 84 2 84 131 l0 115 -32 0 c-26 0 -34 -5 -39 -24 l-5 -23 -29 28 c-29 30 -49 34 -87 19z m94 -119 c18 -35 30 -67 27 -72 -7 -12 -55 -11 -73 0 -15 10 -27 100 -17 126 10 28 30 12 63 -54z"/>
 <path d="M1570 1776 c-9 -12 -11 -38 -5 -101 6 -74 5 -85 -9 -85 -9 0 -30 19 -47 43 -28 38 -30 47 -25 95 l6 52 -29 0 c-45 0 -54 -20 -46 -99 4 -38 4 -74 1 -80 -11 -18 -36 0 -63 46 -20 35 -25 53 -20 89 l5 45 -37 -3 -36 -3 0 -118 c0 -99 3 -118 16 -122 23 -8 47 4 54 26 6 19 7 19 35 -1 16 -11 44 -20 64 -20 33 0 37 3 43 30 5 30 6 30 20 10 29 -41 100 -63 121 -37 5 6 12 64 13 127 l4 115 -26 3 c-14 2 -31 -4 -39 -12z"/>
 <path d="M790 1383 c-192 -19 -265 -58 -285 -153 -4 -19 -30 -69 -57 -110 -92 -142 -129 -335 -94 -499 51 -241 242 -440 482 -501 156 -40 330 -19 477 57 105 54 221 173 275 280 103 207 95 449 -20 640 -40 67 -173 215 -204 227 -13 5 -24 19 -26 30 -3 20 -10 21 -115 23 -63 1 -113 -3 -113 -8 0 -5 9 -18 20 -29 22 -22 27 -78 10 -110 -11 -20 -125 -81 -134 -72 -3 3 -6 35 -6 71 0 50 5 72 20 91 37 47 13 82 -42 61 -15 -5 -30 -6 -39 0 -14 8 -77 10 -149 2z m145 -91 c3 -27 2 -60 -5 -76 -14 -38 -23 -28 -10 11 7 19 8 44 1 71 -5 23 -5 42 -1 42 5 0 11 -21 15 -48z m-272 -54 c9 -72 62 -176 142 -276 42 -53 69 -96 72 -118 5 -30 8 -33 22 -22 13 10 14 10 4 -2 -27 -30 -8 -99 33 -121 13 -7 45 -12 71 -12 35 0 50 5 64 21 9 12 32 25 49 29 40 7 47 26 27 68 -11 23 -27 37 -54 45 -21 7 -41 18 -45 24 -12 17 -9 65 4 89 15 28 22 110 8 102 -6 -4 -10 6 -10 23 0 40 24 49 27 11 1 -16 8 -39 15 -51 7 -13 11 -29 9 -37 -1 -9 3 -12 13 -8 9 4 16 2 16 -3 0 -17 24 -11 53 13 15 12 34 40 41 61 11 31 22 42 52 54 22 9 51 24 66 34 14 10 31 18 37 18 9 0 31 -60 31 -87 0 -12 30 -33 49 -33 13 0 41 29 41 42 0 6 -9 8 -20 5 -21 -5 -24 1 -34 68 l-6 40 26 -30 c38 -44 95 -166 110 -238 80 -371 -231 -730 -611 -703 -269 18 -487 212 -542 482 -26 127 3 289 72 399 l24 40 1 -37 c0 -20 6 -43 13 -50 6 -8 21 -32 33 -53 11 -22 26 -39 32 -38 8 2 12 -11 12 -37 0 -38 1 -40 21 -30 28 15 51 73 43 108 -4 15 -18 50 -31 79 -34 73 -39 113 -18 157 9 20 21 34 25 31 4 -2 10 -28 13 -57z"/>
 </g>
<g id="layer102" fill="#3b4940" stroke="none">
 <path d="M738 1900 c-14 -9 -16 -31 -15 -185 2 -184 4 -194 48 -180 13 5 19 16 19 38 l0 31 28 -31 c33 -35 63 -47 98 -39 29 8 44 41 44 97 0 88 -53 153 -126 154 l-44 0 0 56 c0 43 -4 58 -16 63 -19 7 -15 8 -36 -4z m118 -168 c29 -19 49 -132 25 -146 -21 -13 -101 120 -86 144 7 12 45 13 61 2z"/>
 <path d="M471 1764 c-35 -29 -41 -72 -15 -99 22 -22 60 -16 56 8 -5 26 25 67 48 67 11 0 29 -9 40 -20 29 -29 11 -56 -58 -87 -79 -35 -92 -48 -92 -99 0 -35 5 -47 30 -68 35 -29 86 -41 132 -32 43 8 58 23 58 57 0 54 -66 85 -72 33 -6 -54 -68 -58 -76 -6 -3 18 9 27 71 56 61 28 76 39 85 65 38 108 -117 201 -207 125z"/>
 <path d="M1023 1780 c-30 -12 -43 -41 -43 -95 0 -59 25 -112 64 -137 25 -15 42 -18 87 -14 88 8 84 2 84 131 l0 115 -32 0 c-26 0 -34 -5 -39 -24 l-5 -23 -29 28 c-29 30 -49 34 -87 19z m94 -119 c18 -35 30 -67 27 -72 -7 -12 -55 -11 -73 0 -15 10 -27 100 -17 126 10 28 30 12 63 -54z"/>
 <path d="M1570 1776 c-9 -12 -11 -38 -5 -101 6 -74 5 -85 -9 -85 -9 0 -30 19 -47 43 -28 38 -30 47 -25 95 l6 52 -29 0 c-45 0 -54 -20 -46 -99 4 -38 4 -74 1 -80 -11 -18 -36 0 -63 46 -20 35 -25 53 -20 89 l5 45 -37 -3 -36 -3 0 -118 c0 -99 3 -118 16 -122 23 -8 47 4 54 26 6 19 7 19 35 -1 16 -11 44 -20 64 -20 33 0 37 3 43 30 5 30 6 30 20 10 29 -41 100 -63 121 -37 5 6 12 64 13 127 l4 115 -26 3 c-14 2 -31 -4 -39 -12z"/>
 <path d="M790 1383 c-192 -19 -265 -58 -285 -153 -4 -19 -30 -69 -57 -110 -92 -142 -129 -335 -94 -499 51 -241 242 -440 482 -501 228 -59 460 6 630 175 140 138 201 299 192 499 -8 162 -62 291 -176 417 -82 90 -94 69 -16 -27 44 -53 94 -161 110 -238 80 -370 -232 -729 -611 -702 -269 18 -487 212 -542 482 -26 127 3 289 72 399 l24 40 1 -37 c0 -20 6 -43 13 -50 6 -8 21 -32 33 -53 11 -22 26 -39 32 -37 8 1 12 -12 12 -38 0 -38 1 -40 21 -30 28 15 51 73 43 108 -4 15 -18 50 -31 79 -34 73 -39 113 -18 157 9 20 21 34 25 31 4 -2 10 -28 13 -57 9 -72 62 -176 142 -276 42 -53 69 -96 72 -118 5 -30 8 -33 22 -22 13 10 14 10 4 -2 -27 -30 -8 -99 33 -121 13 -7 45 -12 71 -12 35 0 50 5 64 21 9 12 32 25 49 29 40 7 47 26 27 68 -11 23 -27 37 -54 45 -21 7 -41 18 -45 24 -12 17 -9 65 4 89 15 28 22 110 8 102 -6 -4 -10 5 -10 19 0 32 -11 33 -48 1 -52 -44 -72 -28 -24 18 28 27 29 30 24 106 -4 69 -2 83 17 109 11 17 21 37 21 45 0 21 -31 30 -62 18 -15 -5 -30 -6 -39 0 -14 8 -77 10 -149 2z m145 -91 c3 -27 2 -60 -5 -76 -14 -38 -23 -28 -10 11 7 19 8 44 1 71 -5 23 -5 42 -1 42 5 0 11 -21 15 -48z"/>
 </g>
<g id="layer103" fill="#43b074" stroke="none">
 <path d="M738 1900 c-14 -9 -16 -31 -15 -185 2 -184 4 -194 48 -180 13 5 19 16 19 38 l0 31 28 -31 c33 -35 63 -47 98 -39 29 8 44 41 44 97 0 88 -53 153 -126 154 l-44 0 0 56 c0 43 -4 58 -16 63 -19 7 -15 8 -36 -4z m118 -168 c29 -19 49 -132 25 -146 -21 -13 -101 120 -86 144 7 12 45 13 61 2z"/>
 <path d="M471 1764 c-35 -29 -41 -72 -15 -99 22 -22 60 -16 56 8 -5 26 25 67 48 67 11 0 29 -9 40 -20 29 -29 11 -56 -58 -87 -79 -35 -92 -48 -92 -99 0 -35 5 -47 30 -68 35 -29 86 -41 132 -32 43 8 58 23 58 57 0 54 -66 85 -72 33 -6 -54 -68 -58 -76 -6 -3 18 9 27 71 56 61 28 76 39 85 65 38 108 -117 201 -207 125z"/>
 <path d="M1023 1780 c-30 -12 -43 -41 -43 -95 0 -59 25 -112 64 -137 25 -15 42 -18 87 -14 88 8 84 2 84 131 l0 115 -32 0 c-26 0 -34 -5 -39 -24 l-5 -23 -29 28 c-29 30 -49 34 -87 19z m94 -119 c18 -35 30 -67 27 -72 -7 -12 -55 -11 -73 0 -15 10 -27 100 -17 126 10 28 30 12 63 -54z"/>
 <path d="M1570 1776 c-9 -12 -11 -38 -5 -101 6 -74 5 -85 -9 -85 -9 0 -30 19 -47 43 -28 38 -30 47 -25 95 l6 52 -29 0 c-45 0 -54 -20 -46 -99 4 -38 4 -74 1 -80 -11 -18 -36 0 -63 46 -20 35 -25 53 -20 89 l5 45 -37 -3 -36 -3 0 -118 c0 -99 3 -118 16 -122 23 -8 47 4 54 26 6 19 7 19 35 -1 16 -11 44 -20 64 -20 33 0 37 3 43 30 5 30 6 30 20 10 29 -41 100 -63 121 -37 5 6 12 64 13 127 l4 115 -26 3 c-14 2 -31 -4 -39 -12z"/>
 <path d="M1420 1264 c0 -7 16 -34 35 -60 146 -201 173 -428 75 -626 -172 -346 -601 -444 -895 -205 -226 184 -285 487 -145 742 33 61 36 71 21 72 -27 2 -107 -128 -137 -222 -34 -105 -42 -242 -20 -344 51 -241 242 -440 482 -501 156 -40 330 -19 477 57 105 54 221 173 275 280 103 207 95 449 -20 640 -36 60 -147 185 -148 167z"/>
 </g>
<g id="layer104" fill="#99cc33" stroke="none">
 <path d="M738 1900 c-14 -9 -16 -31 -15 -185 2 -184 4 -194 48 -180 13 5 19 16 19 38 l0 31 28 -31 c33 -35 63 -47 98 -39 29 8 44 41 44 97 0 88 -53 153 -126 154 l-44 0 0 56 c0 43 -4 58 -16 63 -19 7 -15 8 -36 -4z m118 -168 c29 -19 49 -132 25 -146 -21 -13 -101 120 -86 144 7 12 45 13 61 2z"/>
 <path d="M471 1764 c-35 -29 -41 -72 -15 -99 22 -22 60 -16 56 8 -5 26 25 67 48 67 11 0 29 -9 40 -20 29 -29 11 -56 -58 -87 -79 -35 -92 -48 -92 -99 0 -35 5 -47 30 -68 35 -29 86 -41 132 -32 43 8 58 23 58 57 0 54 -66 85 -72 33 -6 -54 -68 -58 -76 -6 -3 18 9 27 71 56 61 28 76 39 85 65 38 108 -117 201 -207 125z"/>
 <path d="M1023 1780 c-30 -12 -43 -41 -43 -95 0 -59 25 -112 64 -137 25 -15 42 -18 87 -14 88 8 84 2 84 131 l0 115 -32 0 c-26 0 -34 -5 -39 -24 l-5 -23 -29 28 c-29 30 -49 34 -87 19z m94 -119 c18 -35 30 -67 27 -72 -7 -12 -55 -11 -73 0 -15 10 -27 100 -17 126 10 28 30 12 63 -54z"/>
 <path d="M1570 1776 c-9 -12 -11 -38 -5 -101 6 -74 5 -85 -9 -85 -9 0 -30 19 -47 43 -28 38 -30 47 -25 95 l6 52 -29 0 c-45 0 -54 -20 -46 -99 4 -38 4 -74 1 -80 -11 -18 -36 0 -63 46 -20 35 -25 53 -20 89 l5 45 -37 -3 -36 -3 0 -118 c0 -99 3 -118 16 -122 23 -8 47 4 54 26 6 19 7 19 35 -1 16 -11 44 -20 64 -20 33 0 37 3 43 30 5 30 6 30 20 10 29 -41 100 -63 121 -37 5 6 12 64 13 127 l4 115 -26 3 c-14 2 -31 -4 -39 -12z"/>
 </g>

</svg>